PathFileType        4      (X/Y/Z)      C:\Users\pc\Desktop\IMUTRC\Sujet_06\Sujet_06_velo_100.trc         
DataRate	CameraRate	NumFrames	NumMarkers	Units	OrigDataRate	OrigDataStartFrame	OrigNumFrames
60.0	60.0	4	64	mm	60.0	584	933
Frame#	Time	pHipOrigin			pRightASI			pLeftASI			pRightCSI			pLeftCSI			pRightIschialTub			pLeftIschialTub			pSacrum			pL5SpinalProcess			pL3SpinalProcess			pT12SpinalProcess			pIJ			pT4SpinalProcess			pT8SpinalProcess			pPX			pC7SpinalProcess			pTopOfHead			pRightAuricularis			pLeftAuricularis			pBackOfHead			pRightAcromion			pLeftAcromion			pRightArmLatEpicondyle			pRightArmMedEpicondyle			pLeftArmLatEpicondyle			pLeftArmMedEpicondyle			pRightUlnarStyloid			pRightRadialStyloid			pRightOlecranon			pLeftUlnarStyloid			pLeftRadialStyloid			pLeftOlecranon			pRightTopOfHand			pRightPinky			pRightBallHand			pLeftTopOfHand			pLeftPinky			pLeftBallHand			pRightGreaterTrochanter			pRightKneeLatEpicondyle			pRightKneeMedEpicondyle			pRightPatella			pLeftGreaterTrochanter			pLeftKneeLatEpicondyle			pLeftKneeMedEpicondyle			pLeftPatella			pRightTibialTub			pRightLatMalleolus			pRightMedMalleolus			pLeftTibialTub			pLeftLatMalleolus			pLeftMedMalleolus			pRightHeelFoot			pRightFirstMetatarsal			pRightFifthMetatarsal			pRightPivotFoot			pRightHeelCenter			pRightToe			pLeftHeelFoot			pLeftFirstMetatarsal			pLeftFifthMetatarsal			pLeftPivotFoot			pLeftHeelCenter			pLeftToe			
		X1	Y1	Z1	X2	Y2	Z2	X3	Y3	Z3	X4	Y4	Z4	X5	Y5	Z5	X6	Y6	Z6	X7	Y7	Z7	X8	Y8	Z8	X9	Y9	Z9	X10	Y10	Z10	X11	Y11	Z11	X12	Y12	Z12	X13	Y13	Z13	X14	Y14	Z14	X15	Y15	Z15	X16	Y16	Z16	X17	Y17	Z17	X18	Y18	Z18	X19	Y19	Z19	X20	Y20	Z20	X21	Y21	Z21	X22	Y22	Z22	X23	Y23	Z23	X24	Y24	Z24	X25	Y25	Z25	X26	Y26	Z26	X27	Y27	Z27	X28	Y28	Z28	X29	Y29	Z29	X30	Y30	Z30	X31	Y31	Z31	X32	Y32	Z32	X33	Y33	Z33	X34	Y34	Z34	X35	Y35	Z35	X36	Y36	Z36	X37	Y37	Z37	X38	Y38	Z38	X39	Y39	Z39	X40	Y40	Z40	X41	Y41	Z41	X42	Y42	Z42	X43	Y43	Z43	X44	Y44	Z44	X45	Y45	Z45	X46	Y46	Z46	X47	Y47	Z47	X48	Y48	Z48	X49	Y49	Z49	X50	Y50	Z50	X51	Y51	Z51	X52	Y52	Z52	X53	Y53	Z53	X54	Y54	Z54	X55	Y55	Z55	X56	Y56	Z56	X57	Y57	Z57	X58	Y58	Z58	X59	Y59	Z59	X60	Y60	Z60	X61	Y61	Z61	X62	Y62	Z62	X63	Y63	Z63	X64	Y64	Z64	
584	9.717	0.0	1250.03612	7.654263665882883E-14	35.478310000000015	1329.7985	128.6407800000001	87.03671999999999	1335.79663	-95.97009999999993	4.721930000000013	1390.80077	104.64825000000009	48.240289999999995	1395.90557	-84.73955999999991	-60.747029999999995	1202.17868	34.58497000000008	-39.051660000000005	1204.73108	-60.10892999999992	-55.76986	1271.8591	-12.251499999999915	-21.69537	1361.83108	-2.2971599999999137	28.58684	1469.79744	8.295290000000087	77.20999	1567.4266	16.973440000000085	324.66482	1641.19086	66.23469000000006	198.70406	1723.50564	36.88213000000008	136.17035	1657.90905	26.672540000000087	243.11575	1548.02839	53.21746000000007	242.98813	1767.27924	45.68789000000008	521.07172	1806.71376	40.20024000000005	426.37781	1781.95552	121.11121000000006	413.48821	1782.72124	-22.97156999999994	406.72436	1837.59776	50.537450000000064	212.99748000000002	1755.41059	218.35751000000008	284.46457	1736.39524	-126.34361999999993	356.31453000000005	1495.19379	251.79390000000004	344.19065	1479.75179	191.94021000000006	431.35498	1488.04708	-171.52103999999997	402.38529	1459.58786	-123.28073999999995	538.68325	1313.33555	238.77668000000003	560.50624	1341.66715	201.00121000000001	337.17156000000006	1476.30605	243.11575000000005	633.6324	1335.41377	-159.65239	641.28958	1353.79103	-111.53972	411.06343	1467.75553	-173.30770999999996	710.07667	1290.74684	186.96303	639.63053	1279.38867	226.78042	574.28918	1302.105	220.01657000000003	795.83718	1353.79103	-79.76239000000001	739.17399	1332.22328	-134.51129	669.7488	1330.05374	-136.29797	7.912430000000017	1229.61695	145.4865900000001	366.90698	1106.71906	132.72461	373.41559	1115.65245	59.72607000000003	381.07278	1151.00314	99.54346000000002	38.79641999999998	1225.27787	-144.2103899999999	210.31746	887.97869	-113.32639999999998	205.46791	885.80916	-39.68975999999997	242.86051	908.27024	-71.08423999999997	386.43281	1063.8388	97.37392000000003	104.64825000000002	820.72305	127.87506000000005	106.56255000000002	818.42589	68.78708000000005	254.21868	851.60704	-76.44426999999997	141.40275999999997	498.35539	-119.96262999999999	142.80658	495.54775	-61.00226999999999	26.16206000000001	775.80087	93.92819000000004	155.05808	678.68219	87.80243000000003	144.84849000000003	689.6575	162.58765	167.05434000000002	671.28024	128.38554	56.79082000000001	755.3817	101.07490000000004	226.90804000000003	626.74093	143.06182	76.69950999999999	433.65214	-87.93004999999998	224.7385	376.47846	-57.811780000000006	221.29275999999996	376.98894	-134.12843	243.24337	368.82127	-95.9701	112.30543999999999	421.7835	-89.58910999999999	313.94475	341.00015	-99.41584000000003	
585	9.733	0.0	1250.03612	7.654263665882883E-14	35.733550000000015	1330.18136	128.2579200000001	87.03671999999999	1335.41377	-96.35295999999992	5.104790000000013	1391.18363	104.13777000000009	48.367909999999995	1395.52271	-85.25003999999991	-60.747029999999995	1202.43392	34.84021000000008	-39.179280000000006	1204.60346	-59.85368999999992	-55.76986	1271.98672	-12.251499999999915	-21.44013	1361.83108	-2.552399999999914	29.09732	1469.79744	7.657190000000086	78.10333	1567.29898	16.207720000000084	326.06863	1639.78704	64.70325000000005	200.36311	1722.73992	35.86117000000009	137.57416	1657.52619	25.779200000000085	244.00909	1547.13505	51.81365000000007	244.90243	1766.25828	44.539320000000075	522.98601	1805.43756	38.54118000000005	428.41973	1780.67932	119.57977000000005	415.40251	1781.44504	-24.50300999999994	408.63866	1836.32156	49.00601000000007	214.78415000000004	1753.87916	217.5917900000001	286.12363	1735.5019	-127.36457999999993	357.59073000000006	1494.04521	252.30438000000004	346.10495	1478.73083	192.19545000000005	431.99308	1486.64326	-173.05246999999997	403.151	1458.43928	-124.55693999999995	540.34231	1312.18697	238.01096000000004	561.91006	1340.64619	200.10787000000002	338.83062000000007	1475.15747	243.49861000000007	634.52573	1334.2652	-161.05621	642.18292	1352.77007	-113.07116	411.82915	1466.35171	-174.71152999999998	711.6081	1289.34302	186.06969	641.16196	1278.11248	225.88708	575.82062	1300.95642	219.12323000000004	796.73052	1353.28055	-81.29382000000001	740.19494	1331.45756	-136.04273	670.64214	1329.03278	-137.8294	9.061010000000017	1230.89314	145.35897000000008	371.11843	1117.56674	129.53412	376.7337	1126.50013	56.53558000000003	383.75279	1162.10606	96.22534000000003	38.413569999999986	1224.89501	-144.3380099999999	209.2965	887.34059	-113.83687999999997	204.82981	885.17106	-40.20023999999997	242.22241	907.50452	-71.72233999999997	393.19666	1075.70744	94.05581000000002	127.49220000000001	815.49064	126.21600000000004	129.15126	813.19348	67.12802000000005	251.1558	848.79941	-76.95474999999998	118.94166999999999	502.3116	-119.70738999999999	120.47310999999999	499.50397	-60.61940999999999	52.32413000000001	764.69795	92.52437000000005	187.85637	677.15075	86.90910000000001	176.88107000000002	687.7432	161.82193	200.36311000000003	670.89738	127.61982000000002	84.35670000000002	746.57593	99.79870000000003	263.27968	630.82476	142.55134	50.665069999999986	441.30933	-87.29195999999997	195.1307	375.4575	-57.9394	191.30210999999997	376.22322	-134.25605	212.86986	366.77936	-96.22534	85.37765999999999	427.39877	-89.20624999999998	281.91218	334.74678	-99.92632000000002	
586	9.75	0.0	1250.03612	7.654263665882883E-14	35.861170000000016	1330.4366	128.1303000000001	87.16433999999998	1335.15853	-96.60819999999993	5.232410000000012	1391.31125	103.88253000000009	48.495529999999995	1395.26747	-85.63289999999992	-60.874649999999995	1202.56154	34.96783000000008	-39.179280000000006	1204.47584	-59.72606999999992	-55.76986	1271.98672	-12.251499999999915	-21.31251	1361.9587	-2.807639999999914	29.48018	1469.79744	7.401950000000086	78.86905	1567.04374	15.824860000000086	327.34483	1638.51084	63.68229000000006	201.89455	1721.9742	35.095450000000085	138.72274	1657.14333	25.141100000000087	244.77481	1546.24171	50.920310000000065	246.68911	1765.36494	43.77360000000008	524.64507	1804.16136	37.26499000000005	430.20641	1779.40312	118.43119000000006	416.93394	1780.16884	-25.65157999999994	410.42533	1835.04536	47.985050000000065	216.44321000000002	1752.73058	216.95369000000008	287.52745	1734.60856	-128.0026799999999	358.73931000000005	1493.15187	252.68724000000003	347.764	1477.83749	192.57831000000004	432.63118	1485.36706	-173.94580999999997	403.91672	1457.2907	-125.45027999999996	541.74613	1311.29363	237.37286000000003	563.31388	1339.88047	199.59740000000002	340.23443000000003	1474.13652	243.88147000000006	635.41907	1333.37186	-162.07717	643.07626	1352.00435	-114.09212	412.46725	1465.07551	-175.60486999999998	713.01192	1288.32206	185.55922	642.56578	1277.21914	225.3766	577.22444	1300.06308	218.61275000000003	797.62386	1353.02531	-82.44240000000002	741.08828	1330.94708	-137.06368	671.6631	1328.26706	-138.85036	9.699110000000017	1231.276	145.23135000000008	373.16035	1123.0544	126.85410000000003	378.26514	1132.1154	53.85556000000002	385.02899	1167.72133	93.54533000000004	38.79641999999998	1225.15025	-144.3380099999999	212.86986	888.99965	-114.09211999999997	208.14792	886.70249	-40.45547999999997	245.41291	909.41882	-71.97757999999997	398.30145	1082.59891	91.37579000000002	149.82567000000003	806.04677	125.32266000000003	151.3571	803.62199	66.23469000000003	251.92152	848.54417	-77.33760999999997	98.77773999999998	510.60689	-118.94166999999999	100.30917999999998	507.79926	-59.981309999999986	77.84809000000001	749.89405	91.88627000000002	219.12323	671.91834	86.39862000000001	207.50982000000002	681.87269	161.18383	232.14045000000002	666.55831	127.10934000000002	111.02924000000002	734.06919	99.16060000000003	297.73704	630.95238	142.16848	26.927779999999988	454.07131	-86.27099999999997	167.05434	379.15848	-57.55654	162.97050999999996	380.17944	-133.87319	184.02778	369.33175	-95.84248	60.61940999999999	437.99121	-88.31290999999999	250.90056	333.08772	-99.92632000000002	
587	9.767	0.0	1250.03612	7.654263665882883E-14	35.478310000000015	1330.30898	128.2579200000001	87.54719999999999	1335.03091	-96.22533999999993	4.9771700000000125	1391.31125	103.88253000000009	48.878389999999996	1395.26747	-85.37765999999992	-61.002269999999996	1202.56154	34.71259000000008	-39.051660000000005	1204.47584	-59.85368999999992	-55.64224	1271.98672	-12.506739999999915	-21.18489	1361.9587	-2.807639999999914	29.86304	1469.66982	7.401950000000086	79.50715	1566.91612	15.824860000000086	328.23817	1637.36226	63.68229000000006	203.17075	1721.46372	35.09545000000008	139.7437	1656.76048	25.268720000000084	245.28529	1545.47599	51.047930000000065	248.09293	1764.59922	43.64598000000008	526.17651	1802.75755	36.75451000000005	431.73784	1778.12692	118.17595000000006	418.21014	1778.89264	-25.90681999999994	411.82915	1833.76916	47.602190000000064	217.46417000000002	1751.83724	217.0813100000001	288.80365	1733.84285	-127.87505999999993	359.76027000000005	1492.64139	253.32534000000004	349.0402	1477.32701	193.08878000000004	433.26928	1484.09086	-173.94580999999997	404.4272	1456.14212	-125.32265999999996	543.02232	1310.91077	237.50048000000004	564.46245	1339.49761	199.72501000000003	341.25539000000003	1473.62604	244.51957000000004	636.31241	1332.73376	-162.20479	644.09722	1351.49387	-114.34736	412.97773	1463.79931	-175.47724999999997	714.1605	1287.81158	185.68683	643.71436	1276.83628	225.50422	578.37301	1299.68023	218.74037000000004	798.64482	1352.89769	-82.82526000000001	742.10924	1330.56422	-137.31892	672.68406	1327.75658	-138.97798	9.571490000000018	1230.51028	144.9761100000001	372.77749	1121.65058	124.81218000000003	377.62704	1131.47731	51.941270000000024	384.64613	1166.70037	91.88627000000002	40.32785999999999	1226.04359	-144.2103899999999	221.03752	893.46634	-114.47497999999997	215.54987	890.53109	-40.838339999999974	252.68724	914.26838	-71.72233999999997	401.23671	1082.98177	89.58911000000003	171.01056000000003	791.37049	126.21600000000002	172.28675	788.94571	67.12802000000003	256.64345	850.45847	-77.59284999999997	81.03857999999998	523.49649	-117.92070999999999	82.69763999999999	520.56124	-58.96035999999998	102.73395000000001	730.8787	92.77961000000003	248.85864	662.21923	86.90910000000001	236.73476000000002	671.40786	161.69431	262.25873	657.75254	127.49220000000001	136.93606	717.22338	100.05394000000003	330.02485	626.48569	142.2961	5.742889999999989	472.70381	-84.99479999999997	140.25418	388.09187	-56.535579999999996	136.04272999999998	389.36806	-132.85223	156.4619	376.98894	-94.82151999999999	38.285949999999985	454.32655	-87.03671999999997	220.39943	336.1506	-99.03298000000001	
